<svg width="40" height="40" viewBox="0 0 40 40" fill="none" xmlns="http://www.w3.org/2000/svg">
<path d="M3.33325 9.99165C3.33325 9.07498 4.07659 8.33331 4.99159 8.33331H18.3416C18.7814 8.33331 19.2032 8.50803 19.5142 8.81903C19.8252 9.13003 19.9999 9.55183 19.9999 9.99165C19.9999 10.4315 19.8252 10.8533 19.5142 11.1643C19.2032 11.4753 18.7814 11.65 18.3416 11.65H4.99159C4.55177 11.65 4.12996 11.4753 3.81897 11.1643C3.50797 10.8533 3.33325 10.4315 3.33325 9.99165ZM3.33325 20C3.33325 19.0833 4.07659 18.3416 4.99159 18.3416H35.0082C35.4481 18.3416 35.8699 18.5164 36.1809 18.8274C36.4919 19.1384 36.6666 19.5602 36.6666 20C36.6666 20.4398 36.4919 20.8616 36.1809 21.1726C35.8699 21.4836 35.4481 21.6583 35.0082 21.6583H4.99159C4.55177 21.6583 4.12996 21.4836 3.81897 21.1726C3.50797 20.8616 3.33325 20.4398 3.33325 20ZM4.99159 28.35C4.55177 28.35 4.12996 28.5247 3.81897 28.8357C3.50797 29.1467 3.33325 29.5685 3.33325 30.0083C3.33325 30.4481 3.50797 30.8699 3.81897 31.1809C4.12996 31.4919 4.55177 31.6666 4.99159 31.6666H25.0083C25.4481 31.6666 25.8699 31.4919 26.1809 31.1809C26.4919 30.8699 26.6666 30.4481 26.6666 30.0083C26.6666 29.5685 26.4919 29.1467 26.1809 28.8357C25.8699 28.5247 25.4481 28.35 25.0083 28.35H4.99159Z" fill="#B59571"/>
</svg>
